<mxfile host="app.diagrams.net" modified="2023-02-03T07:06:26.160Z" agent="5.0 (Windows NT 10.0; Win64; x64) AppleWebKit/537.36 (KHTML, like Gecko) Chrome/109.0.0.0 Safari/537.36" etag="jZRzWRkRSMj7iFkWIozg" version="20.8.15" type="github">
  <diagram name="Страница 1" id="LgsbMWBESHbUYroMua2p">
    <mxGraphModel dx="1114" dy="584" grid="1" gridSize="10" guides="1" tooltips="1" connect="1" arrows="1" fold="1" page="1" pageScale="1" pageWidth="827" pageHeight="1169" math="0" shadow="0">
      <root>
        <mxCell id="0" />
        <mxCell id="1" parent="0" />
        <mxCell id="y6tM2BsDcEVuRx64Hg7A-4" style="edgeStyle=orthogonalEdgeStyle;rounded=0;orthogonalLoop=1;jettySize=auto;html=1;exitX=0.5;exitY=1;exitDx=0;exitDy=0;entryX=0.5;entryY=0;entryDx=0;entryDy=0;" parent="1" source="y6tM2BsDcEVuRx64Hg7A-3" target="xPWEyY98Uc1iF1DQ3HpN-2" edge="1">
          <mxGeometry relative="1" as="geometry">
            <mxPoint x="375" y="195" as="targetPoint" />
          </mxGeometry>
        </mxCell>
        <mxCell id="y6tM2BsDcEVuRx64Hg7A-3" value="&lt;b&gt;User enter&lt;/b&gt;" style="rounded=1;whiteSpace=wrap;html=1;fillColor=#f8cecc;strokeColor=#b85450;" parent="1" vertex="1">
          <mxGeometry x="315" y="40" width="120" height="60" as="geometry" />
        </mxCell>
        <mxCell id="PNvZ4A7sdPnOWRzi79Dc-10" style="edgeStyle=orthogonalEdgeStyle;rounded=0;orthogonalLoop=1;jettySize=auto;html=1;exitX=0.5;exitY=1;exitDx=0;exitDy=0;entryX=-0.007;entryY=0.062;entryDx=0;entryDy=0;fontColor=#000000;entryPerimeter=0;" edge="1" parent="1" source="xPWEyY98Uc1iF1DQ3HpN-1" target="PNvZ4A7sdPnOWRzi79Dc-2">
          <mxGeometry relative="1" as="geometry" />
        </mxCell>
        <mxCell id="xPWEyY98Uc1iF1DQ3HpN-1" value="Collect user&#39;s data" style="message.from_user.id&#xa;message.from_user.username&#xa;message.from_user.first_name" parent="1" vertex="1">
          <mxGeometry x="460" y="160" width="110" height="30" as="geometry" />
        </mxCell>
        <mxCell id="xPWEyY98Uc1iF1DQ3HpN-3" style="edgeStyle=orthogonalEdgeStyle;rounded=0;orthogonalLoop=1;jettySize=auto;html=1;exitX=1;exitY=0.5;exitDx=0;exitDy=0;entryX=0.5;entryY=0;entryDx=0;entryDy=0;fontColor=#000000;" parent="1" source="xPWEyY98Uc1iF1DQ3HpN-2" target="xPWEyY98Uc1iF1DQ3HpN-1" edge="1">
          <mxGeometry relative="1" as="geometry" />
        </mxCell>
        <mxCell id="xPWEyY98Uc1iF1DQ3HpN-4" value="New user" style="edgeLabel;html=1;align=center;verticalAlign=middle;resizable=0;points=[];fontColor=#000000;" parent="xPWEyY98Uc1iF1DQ3HpN-3" vertex="1" connectable="0">
          <mxGeometry x="0.2" relative="1" as="geometry">
            <mxPoint x="-21" as="offset" />
          </mxGeometry>
        </mxCell>
        <mxCell id="xPWEyY98Uc1iF1DQ3HpN-5" style="edgeStyle=orthogonalEdgeStyle;rounded=0;orthogonalLoop=1;jettySize=auto;html=1;exitX=0;exitY=0.5;exitDx=0;exitDy=0;fontColor=#000000;entryX=0.5;entryY=0;entryDx=0;entryDy=0;" parent="1" source="xPWEyY98Uc1iF1DQ3HpN-2" target="xPWEyY98Uc1iF1DQ3HpN-6" edge="1">
          <mxGeometry relative="1" as="geometry">
            <mxPoint x="175" y="255" as="targetPoint" />
          </mxGeometry>
        </mxCell>
        <mxCell id="xPWEyY98Uc1iF1DQ3HpN-7" value="Old user" style="edgeLabel;html=1;align=center;verticalAlign=middle;resizable=0;points=[];fontColor=#000000;" parent="xPWEyY98Uc1iF1DQ3HpN-5" vertex="1" connectable="0">
          <mxGeometry x="0.0333" y="3" relative="1" as="geometry">
            <mxPoint x="7" y="-3" as="offset" />
          </mxGeometry>
        </mxCell>
        <mxCell id="xPWEyY98Uc1iF1DQ3HpN-2" value="Bot check user" style="rhombus;whiteSpace=wrap;html=1;labelBackgroundColor=none;labelBorderColor=none;fillColor=#d5e8d4;strokeColor=#82b366;" parent="1" vertex="1">
          <mxGeometry x="305" y="120" width="140" height="40" as="geometry" />
        </mxCell>
        <mxCell id="xPWEyY98Uc1iF1DQ3HpN-6" value="&lt;p style=&quot;border-color: var(--border-color); color: rgb(51, 51, 51);&quot;&gt;&lt;b style=&quot;border-color: var(--border-color);&quot;&gt;Collect user data:&lt;/b&gt;&lt;/p&gt;&lt;ul style=&quot;border-color: var(--border-color); color: rgb(51, 51, 51);&quot;&gt;&lt;li style=&quot;text-align: left; border-color: var(--border-color);&quot;&gt;&lt;br&gt;&lt;/li&gt;&lt;/ul&gt;&lt;p&gt;&lt;/p&gt;" style="rounded=0;whiteSpace=wrap;html=1;labelBackgroundColor=none;labelBorderColor=none;fillColor=#dae8fc;strokeColor=#6c8ebf;" parent="1" vertex="1">
          <mxGeometry x="180" y="160" width="125" height="70" as="geometry" />
        </mxCell>
        <mxCell id="xPWEyY98Uc1iF1DQ3HpN-9" value="&lt;font style=&quot;font-size: 17px;&quot;&gt;&lt;b&gt;Sibtex_bot&lt;/b&gt;&lt;/font&gt;" style="text;html=1;strokeColor=none;fillColor=none;align=center;verticalAlign=middle;whiteSpace=wrap;rounded=0;fontColor=#000000;" parent="1" vertex="1">
          <mxGeometry x="345" width="190" height="30" as="geometry" />
        </mxCell>
        <mxCell id="xPWEyY98Uc1iF1DQ3HpN-10" value="&lt;div style=&quot;border-color: var(--border-color); color: rgb(51, 51, 51);&quot;&gt;&lt;b style=&quot;border-color: var(--border-color);&quot;&gt;:&lt;/b&gt;&lt;/div&gt;&lt;ul style=&quot;border-color: var(--border-color); color: rgb(51, 51, 51);&quot;&gt;&lt;li style=&quot;text-align: left; border-color: var(--border-color);&quot;&gt;TG id&lt;/li&gt;&lt;li style=&quot;text-align: left; border-color: var(--border-color);&quot;&gt;User name&lt;/li&gt;&lt;/ul&gt;" style="rounded=0;whiteSpace=wrap;html=1;labelBackgroundColor=none;labelBorderColor=none;fillColor=#dae8fc;strokeColor=#6c8ebf;" parent="1" vertex="1">
          <mxGeometry x="390" y="290" width="130" height="70" as="geometry" />
        </mxCell>
        <mxCell id="PNvZ4A7sdPnOWRzi79Dc-1" value="Associative&#xa;Entity" style="shape=associativeEntity;whiteSpace=wrap;html=1;align=center;fontColor=#000000;" vertex="1" parent="1">
          <mxGeometry x="560" y="30" width="140" height="60" as="geometry" />
        </mxCell>
        <mxCell id="PNvZ4A7sdPnOWRzi79Dc-2" value="DATABASE" style="swimlane;fontStyle=1;childLayout=stackLayout;horizontal=1;startSize=30;horizontalStack=0;resizeParent=1;resizeParentMax=0;resizeLast=0;collapsible=1;marginBottom=0;whiteSpace=wrap;html=1;fontColor=#000000;" vertex="1" parent="1">
          <mxGeometry x="570" y="200" width="150" height="190" as="geometry">
            <mxRectangle x="605" y="210" width="60" height="30" as="alternateBounds" />
          </mxGeometry>
        </mxCell>
        <mxCell id="PNvZ4A7sdPnOWRzi79Dc-3" value="telegram info:" style="text;strokeColor=none;fillColor=none;align=center;verticalAlign=middle;spacingLeft=4;spacingRight=4;overflow=hidden;points=[[0,0.5],[1,0.5]];portConstraint=eastwest;rotatable=0;whiteSpace=wrap;html=1;fontColor=#000000;fontStyle=1" vertex="1" parent="PNvZ4A7sdPnOWRzi79Dc-2">
          <mxGeometry y="30" width="150" height="20" as="geometry" />
        </mxCell>
        <mxCell id="PNvZ4A7sdPnOWRzi79Dc-13" value="id" style="text;strokeColor=none;fillColor=none;align=left;verticalAlign=middle;spacingLeft=4;spacingRight=4;overflow=hidden;points=[[0,0.5],[1,0.5]];portConstraint=eastwest;rotatable=0;whiteSpace=wrap;html=1;fontColor=#000000;" vertex="1" parent="PNvZ4A7sdPnOWRzi79Dc-2">
          <mxGeometry y="50" width="150" height="30" as="geometry" />
        </mxCell>
        <mxCell id="PNvZ4A7sdPnOWRzi79Dc-4" value="username" style="text;strokeColor=none;fillColor=none;align=left;verticalAlign=middle;spacingLeft=4;spacingRight=4;overflow=hidden;points=[[0,0.5],[1,0.5]];portConstraint=eastwest;rotatable=0;whiteSpace=wrap;html=1;fontColor=#000000;" vertex="1" parent="PNvZ4A7sdPnOWRzi79Dc-2">
          <mxGeometry y="80" width="150" height="30" as="geometry" />
        </mxCell>
        <mxCell id="PNvZ4A7sdPnOWRzi79Dc-5" value="first _name" style="text;strokeColor=none;fillColor=none;align=left;verticalAlign=middle;spacingLeft=4;spacingRight=4;overflow=hidden;points=[[0,0.5],[1,0.5]];portConstraint=eastwest;rotatable=0;whiteSpace=wrap;html=1;fontColor=#000000;" vertex="1" parent="PNvZ4A7sdPnOWRzi79Dc-2">
          <mxGeometry y="110" width="150" height="30" as="geometry" />
        </mxCell>
        <mxCell id="PNvZ4A7sdPnOWRzi79Dc-14" value="additional info" style="text;strokeColor=none;fillColor=none;align=center;verticalAlign=middle;spacingLeft=4;spacingRight=4;overflow=hidden;points=[[0,0.5],[1,0.5]];portConstraint=eastwest;rotatable=0;whiteSpace=wrap;html=1;fontColor=#000000;fontStyle=1" vertex="1" parent="PNvZ4A7sdPnOWRzi79Dc-2">
          <mxGeometry y="140" width="150" height="20" as="geometry" />
        </mxCell>
        <mxCell id="PNvZ4A7sdPnOWRzi79Dc-9" value="wallet (TON address)" style="text;strokeColor=none;fillColor=none;align=left;verticalAlign=middle;spacingLeft=4;spacingRight=4;overflow=hidden;points=[[0,0.5],[1,0.5]];portConstraint=eastwest;rotatable=0;whiteSpace=wrap;html=1;fontColor=#000000;" vertex="1" parent="PNvZ4A7sdPnOWRzi79Dc-2">
          <mxGeometry y="160" width="150" height="30" as="geometry" />
        </mxCell>
      </root>
    </mxGraphModel>
  </diagram>
</mxfile>
